<svg version="1.1" id="Layer_1" xmlns="http://www.w3.org/2000/svg" xmlns:xlink="http://www.w3.org/1999/xlink" x="0px" y="0px"
	 viewBox="0 0 512.213 512.213" style="enable-background:new 0 0 512.213 512.213;" xml:space="preserve">
<g transform="translate(1 1)">
	<path style="fill:#FFE100;" d="M144.173,93.08v-51.2h17.067V7.747H58.84V41.88h17.067v110.933l-47.787,40.96
		c-6.827,6.827-2.56,18.773,6.827,18.773h40.96v256H58.84v34.133h392.533v-34.133h-17.067v-256h40.96
		c9.387,0,13.653-11.947,6.827-17.92L285.827,20.547c-17.067-16.213-44.373-16.213-61.44,0L144.173,93.08z"/>
	<path style="fill:#FFA800;" d="M395.053,413.933l-92.16-92.16c12.8-16.213,20.48-35.84,20.48-58.027
		c0-52.053-41.813-93.867-93.867-93.867s-93.867,41.813-93.867,93.867s41.813,93.867,93.867,93.867
		c17.92,0,34.133-5.12,47.787-13.653l93.867,93.867L395.053,413.933z"/>
	<path style="fill:#63D3FD;" d="M229.507,323.48c-33.28,0-59.733-26.453-59.733-59.733s26.453-59.733,59.733-59.733
		s59.733,26.453,59.733,59.733C289.24,297.027,262.787,323.48,229.507,323.48"/>
	<path d="M451.373,511.213H58.84c-5.12,0-8.533-3.413-8.533-8.533v-34.133c0-5.12,3.413-8.533,8.533-8.533h8.533V221.08H34.947
		c-7.68,0-15.36-5.12-17.92-11.947s-0.853-15.36,5.12-21.333l45.227-39.253V50.413H58.84c-5.12,0-8.533-3.413-8.533-8.533V7.747
		c0-5.12,3.413-8.533,8.533-8.533h102.4c5.12,0,8.533,3.413,8.533,8.533V41.88c0,5.12-3.413,8.533-8.533,8.533h-8.533v23.04
		l65.707-59.733c20.48-19.627,52.907-19.627,73.387,0L488.067,187.8c5.973,5.12,7.68,13.653,5.12,20.48
		c-2.56,7.68-9.387,11.947-17.92,11.947H442.84V459.16h8.533c5.12,0,8.533,3.413,8.533,8.533v34.133
		C459.907,507.8,456.493,511.213,451.373,511.213z M67.373,494.147H442.84V477.08h-8.533c-5.12,0-8.533-3.413-8.533-8.533v-256
		c0-5.12,3.413-8.533,8.533-8.533h40.96c0,0,0.853,0,1.707-0.853c0.853-0.853,0-1.707-0.853-1.707L279.853,27.373
		c-14.507-13.653-35.84-13.653-49.493,0l-80.213,73.387c-2.56,2.56-5.973,2.56-9.387,1.707c-3.413-2.56-5.12-5.973-5.12-9.387v-51.2
		c0-5.12,3.413-8.533,8.533-8.533h8.533V16.28H67.373v17.067h8.533c5.12,0,8.533,3.413,8.533,8.533v110.933
		c0,2.56-0.853,5.12-2.56,6.827L34.093,200.6c-0.853,0.853-0.853,1.707-0.853,2.56c0.853,0.853,0.853,0.853,1.707,0.853h40.96
		c5.12,0,8.533,3.413,8.533,8.533v256c0,5.12-3.413,8.533-8.533,8.533h-8.533V494.147z"/>
	<path d="M229.507,332.013c-37.547,0-68.267-30.72-68.267-68.267s30.72-68.267,68.267-68.267s68.267,30.72,68.267,68.267
		S267.053,332.013,229.507,332.013z M229.507,212.547c-28.16,0-51.2,23.04-51.2,51.2s23.04,51.2,51.2,51.2s51.2-23.04,51.2-51.2
		S257.667,212.547,229.507,212.547z"/>
	<path d="M371.16,446.36c-2.56,0-4.267-0.853-5.973-2.56l-89.6-88.747c-13.653,6.827-29.867,11.093-46.08,11.093
		c-56.32,0-102.4-46.08-102.4-102.4s46.08-102.4,102.4-102.4s102.4,46.08,102.4,102.4c0,20.48-5.973,40.107-17.92,57.173
		l87.04,87.04c3.413,3.413,3.413,8.533,0,11.947L377.133,443.8C375.427,445.507,372.867,446.36,371.16,446.36z M277.293,335.427
		c2.56,0,4.267,0.853,5.973,2.56l87.893,87.893l11.947-11.947l-86.187-86.187c-3.413-3.413-3.413-7.68-0.853-11.093
		c11.947-15.36,18.773-33.28,18.773-52.907c0-46.933-38.4-85.333-85.333-85.333s-85.333,38.4-85.333,85.333
		s38.4,85.333,85.333,85.333c15.36,0,30.72-4.267,43.52-11.947C274.733,336.28,275.587,335.427,277.293,335.427z"/>
</g>
</svg>